<?xml version="1.0" encoding="UTF-8" standalone="no"?>
<svg
   xmlns:dc="http://purl.org/dc/elements/1.1/"
   xmlns:cc="http://creativecommons.org/ns#"
   xmlns:rdf="http://www.w3.org/1999/02/22-rdf-syntax-ns#"
   xmlns:svg="http://www.w3.org/2000/svg"
   xmlns="http://www.w3.org/2000/svg"
   xmlns:xlink="http://www.w3.org/1999/xlink"
   xmlns:sodipodi="http://sodipodi.sourceforge.net/DTD/sodipodi-0.dtd"
   xmlns:inkscape="http://www.inkscape.org/namespaces/inkscape"
   version="1.1"
   id="svg2"
   viewBox="0 0 128 128"
   inkscape:version="0.91 r13725"
   sodipodi:docname="asciidoctor.svg">
  <sodipodi:namedview
     pagecolor="#ffffff"
     bordercolor="#666666"
     borderopacity="1"
     objecttolerance="10"
     gridtolerance="10"
     guidetolerance="10"
     inkscape:pageopacity="0"
     inkscape:pageshadow="2"
     inkscape:window-width="2532"
     inkscape:window-height="1388"
     id="namedview33"
     showgrid="false"
     inkscape:zoom="5.2149125"
     inkscape:cx="16.009801"
     inkscape:cy="31.536796"
     inkscape:window-x="28"
     inkscape:window-y="0"
     inkscape:window-maximized="1"
     inkscape:current-layer="svg2" />
  <metadata
     id="metadata34">
    <rdf:RDF>
      <cc:Work
         rdf:about="">
        <dc:format>image/svg+xml</dc:format>
        <dc:type
           rdf:resource="http://purl.org/dc/dcmitype/StillImage" />
        <dc:title />
      </cc:Work>
    </rdf:RDF>
  </metadata>
  <defs
     id="0">
    <linearGradient
       id="8">
      <stop
         stop-color="#cbcbcb"
         id="I" />
      <stop
         stop-color="#eee"
         id="J"
         offset="1" />
    </linearGradient>
    <linearGradient
       id="9">
      <stop
         stop-color="#fd0"
         id="K" />
      <stop
         stop-color="#e3ad00"
         id="L"
         offset="1" />
    </linearGradient>
    <linearGradient
       id="A">
      <stop
         id="M" />
      <stop
         stop-opacity="0.536"
         id="N"
         offset="1" />
    </linearGradient>
    <linearGradient
       id="B">
      <stop
         id="O" />
      <stop
         stop-opacity="0"
         stop-color="#ddd"
         id="P"
         offset="1" />
    </linearGradient>
    <filter
       height="1.29"
       y="-0.145"
       width="1.294"
       x="-0.147"
       id="C">
      <feGaussianBlur
         id="Q"
         stdDeviation="1.81881" />
    </filter>
    <filter
       id="D">
      <feGaussianBlur
         id="R"
         stdDeviation="2.58594" />
    </filter>
    <radialGradient
       id="E"
       gradientUnits="userSpaceOnUse"
       gradientTransform="matrix(1,0,0,0.97467889,0,0.43910718)"
       cx="89.51"
       cy="22.254"
       r="18.279"
       xlink:href="#A" />
    <linearGradient
       y2="25.1"
       x2="86.82"
       y1="14.793"
       x1="98.33"
       gradientTransform="matrix(1.1027844,0,0,0.96494206,-1.6466334,2.3073887)"
       gradientUnits="userSpaceOnUse"
       id="F"
       xlink:href="#B" />
    <radialGradient
       r="44.42"
       cy="100.32"
       cx="81.79"
       gradientTransform="matrix(2.2824714,-1.6069793,2.0257174,2.2425778,-320.53386,26.027991)"
       gradientUnits="userSpaceOnUse"
       id="G"
       xlink:href="#9" />
    <linearGradient
       y2="25.1"
       x2="86.82"
       y1="14.793"
       x1="98.330002"
       gradientTransform="matrix(1.1027844,0,0,0.96494206,53.32121,28.3893)"
       gradientUnits="userSpaceOnUse"
       id="F-3"
       xlink:href="#B" />
    <linearGradient
       y2="25.1"
       x2="86.82"
       y1="14.793"
       x1="98.330002"
       gradientTransform="matrix(1.0903653,0,0,0.95676899,-0.45572616,2.3327971)"
       gradientUnits="userSpaceOnUse"
       id="F-3-5"
       xlink:href="#B" />
  </defs>
  <path
     filter="url(#D)"
     opacity="0.809"
     transform="matrix(0.96714879,0,0,0.97126149,1.5886796,2.6954315)"
     id="1"
     d="m 20.09375,4.1185004 0,117.9999996 88.84375,0 0,-86.15625 -0.59375,-0.625 c 0.21045,0.144391 0.41688,0.302162 0.625,0.4375 L 78.09375,4.1497504 c 0.05654,0.079597 0.09993,0.1703021 0.15625,0.25 l -0.25,-0.28125 -57.90625,0 z" />
  <path
     style="fill:url(#G)"
     id="2"
     d="m 20.394626,4.734986 0,114.834424 97.933244,0 0,-83.844944 -34.102673,-30.98948 -63.830571,0 z" />
  <path
     style="opacity:0.50499998;fill:url(#E);filter:url(#C)"
     transform="matrix(1.016085,0,0,1.112241,2.0563738,-0.67863929)"
     d="m 81.698039,28.309502 0.135161,-8.351 C 81.901124,13.359407 80.956142,8.4107397 77.785779,3.9471419 L 80.362343,3.9159389 107.86271,29.53084 c -4.06802,-2.645393 -9.621189,-0.791242 -16.861906,-1.025606 l -9.302765,-0.195732 z"
     id="4" />
  <path
     id="path4732"
     d="m 26.72239,105.55642 c -2.648271,-1.31086 -3.709629,-4.7872 -2.28862,-7.49607 1.562267,-2.978127 6.094925,-3.767456 8.210488,-1.42979 0.646413,0.71428 0.866883,0.67646 0.963738,-0.16529 0.04809,-0.41782 0.235677,-0.701827 0.463579,-0.701827 0.324686,0 0.39335,0.749047 0.452197,4.932627 0.06474,4.60405 0.03923,4.9269 -0.382817,4.84644 -0.248712,-0.0474 -0.488897,-0.34343 -0.533752,-0.65782 -0.04487,-0.31439 -0.11945,-0.57162 -0.165769,-0.57162 -0.04631,0 -0.68152,0.40196 -1.411561,0.89324 -1.127765,0.75893 -1.544175,0.89322 -2.769193,0.89305 -0.956236,-1.3e-4 -1.811107,-0.18299 -2.53829,-0.54294 z m 4.66858,-0.95741 c 2.528192,-1.45832 2.85217,-5.19124 0.626604,-7.21963 -1.780522,-1.622787 -4.181797,-1.5478 -5.914286,0.18469 -3.621377,3.62138 0.862811,9.58732 5.287682,7.03494 z m 5.837604,1.13295 c -0.937285,-0.40789 -1.274476,-0.85138 -0.918213,-1.20763 0.16945,-0.16945 0.516523,-0.1193 1.036984,0.14984 1.09212,0.56475 1.750417,0.50581 2.478121,-0.22189 1.287338,-1.28734 0.659782,-2.92137 -1.456709,-3.79297 -1.46339,-0.60264 -2.000264,-1.28496 -2.000264,-2.54217 0,-1.29581 0.457905,-2.0367 1.534327,-2.482567 1.071548,-0.44385 2.804293,0.0363 2.804293,0.777137 0,0.57351 -0.229617,0.61719 -1.117631,0.21258 -0.917748,-0.41815 -1.829494,-0.0968 -2.189201,0.77163 -0.439162,1.06022 -0.05024,1.62599 1.79325,2.60855 0.91972,0.49021 1.694751,1.11131 1.912734,1.53285 0.814634,1.57532 0.213432,3.33473 -1.429869,4.18452 -0.890564,0.46053 -1.407916,0.46267 -2.447822,0.0102 z m 8.45519,0.008 c -3.833344,-1.69891 -4.311373,-7.14547 -0.833648,-9.49841 1.495661,-1.011917 2.980803,-1.248137 4.676826,-0.743877 1.450506,0.431257 2.677069,1.503687 2.230525,1.950237 -0.195639,0.19564 -0.5651,0.082 -1.287953,-0.39644 -1.8309,-1.21163 -3.77392,-1.10616 -5.43943,0.29528 -1.079672,0.90848 -1.515626,1.88446 -1.515626,3.39304 0,1.51551 0.436132,2.4847 1.533712,3.40827 1.596131,1.34305 3.555829,1.39601 5.582519,0.15087 1.046408,-0.64289 1.677079,-0.30901 0.944788,0.50016 -1.116524,1.23375 -4.141053,1.71674 -5.891713,0.94087 z m 16.463059,-0.0473 c -2.394494,-1.03839 -3.675707,-3.68068 -3.049803,-6.28974 0.239407,-0.99797 0.601509,-1.60048 1.50455,-2.50354 2.052444,-2.052437 4.731013,-2.236817 6.951741,-0.47854 0.518146,0.41026 1.002598,0.74591 1.076558,0.74591 0.07396,0 0.166826,-1.34943 0.206378,-2.998747 0.0591,-2.46346 0.140238,-2.998753 0.454718,-2.998753 0.331167,0 0.382818,0.96375 0.382818,7.14247 0,6.59943 -0.03395,7.149 -0.446622,7.22847 -0.329738,0.0635 -0.446623,-0.082 -0.446623,-0.55567 0,-0.92204 -0.346752,-1.00707 -1.047552,-0.25688 -0.336233,0.35993 -0.921449,0.81579 -1.300494,1.013 -0.898089,0.46727 -3.155775,0.442 -4.285669,-0.0479 z m 4.515345,-1.15903 c 3.060414,-1.8809 2.564013,-6.72742 -0.821479,-8.02035 -2.10686,-0.804617 -4.438928,0.15729 -5.451257,2.24848 -0.676869,1.39823 -0.686144,2.53855 -0.03165,3.89057 1.165115,2.40679 4.049063,3.2674 6.304385,1.8813 z m 7.492066,0.99079 c -0.597807,-0.31612 -1.448505,-1.07392 -1.890439,-1.68399 -0.736137,-1.01621 -0.803516,-1.27454 -0.803516,-3.08065 0,-1.73025 0.08711,-2.10305 0.712048,-3.0474 1.305845,-1.973257 3.467706,-2.846887 5.769933,-2.331677 2.640161,0.590837 4.714263,3.542597 4.245396,6.041857 -0.548901,2.92594 -2.587339,4.67665 -5.445205,4.67665 -1.065445,0 -1.816859,-0.16687 -2.588217,-0.57477 z m 4.839215,-0.99187 c 2.526749,-1.41381 2.965454,-4.88937 0.880354,-6.97447 -2.159681,-2.159677 -5.719047,-1.56759 -7.160242,1.19108 -0.46268,0.88561 -0.463487,3.09316 -0.0015,3.98114 1.215957,2.33704 3.932557,3.11648 6.281353,1.80225 z m 7.356475,1.0509 c -1.695073,-0.89549 -3.022242,-3.04358 -3.022242,-4.89167 0,-3.1016 3.50713,-6.062378 6.432864,-5.430727 1.14534,0.24727 2.749377,1.084187 2.917459,1.522187 0.30875,0.80459 -0.225359,0.83357 -1.635135,0.0887 -1.166218,-0.61616 -1.683133,-0.74836 -2.551796,-0.65259 -2.45859,0.27106 -4.343664,2.55932 -4.074631,4.94614 0.374158,3.31955 3.951873,5.04559 6.889724,3.32389 1.417374,-0.83063 1.522417,-0.84042 1.418341,-0.132 -0.220875,1.50337 -4.347324,2.29705 -6.374584,1.22606 z m 14.802356,0.0137 c -1.698901,-0.92252 -3.025082,-3.06799 -3.020825,-4.88706 0.0045,-2.22995 1.76495,-4.56603 3.922785,-5.207577 4.71827,-1.402808 8.72215,3.499427 6.37714,7.807977 -1.01462,1.86417 -2.30386,2.63903 -4.53281,2.72427 -1.41867,0.0543 -2.01567,-0.0408 -2.74629,-0.43761 z m 4.68476,-0.9355 c 1.12729,-0.57039 2.05374,-2.00764 2.18681,-3.39254 0.1569,-1.63293 -0.28694,-2.88469 -1.35553,-3.82291 -2.33378,-2.049077 -5.57272,-1.46871 -6.943205,1.24412 -0.715584,1.41649 -0.727865,2.59169 -0.0418,4.00872 1.106285,2.28525 3.811225,3.14794 6.153815,1.96261 z m -9.627292,0.83098 c -1.209162,-0.53456 -1.471676,-1.41277 -1.598194,-5.34649 -0.08654,-2.69061 -0.19739,-3.5607 -0.466811,-3.66409 -0.469061,-0.17999 -0.451008,-0.754517 0.0295,-0.938897 0.289462,-0.11108 0.382817,-0.5794 0.382817,-1.92053 0,-1.998888 0.150065,-2.581016 0.665334,-2.581016 0.273494,0 0.355519,0.459278 0.355519,1.990661 0,2.119885 0.219894,2.603175 1.184443,2.603175 1.201553,0 0.852197,0.884387 -0.418807,1.060197 -0.630915,0.0873 -0.638913,0.11955 -0.716856,2.89559 -0.09992,3.55847 0.176793,4.5795 1.40151,5.17134 0.504576,0.24385 0.930196,0.5582 0.945826,0.69856 0.04384,0.39367 -0.906683,0.41066 -1.764275,0.0315 z m -42.571845,-0.074 c -0.09358,-0.0936 -0.170143,-2.20416 -0.170143,-4.69019 0,-3.46997 0.07957,-4.58609 0.3425,-4.8043 0.188372,-0.156327 0.418061,-0.208677 0.510427,-0.11632 0.09235,0.0924 0.167929,2.33086 0.167929,4.97444 0,3.83528 -0.06874,4.80651 -0.340285,4.80651 -0.187158,0 -0.416853,-0.0766 -0.510428,-0.17014 z m 2.79211,-0.23356 c -0.269221,-0.70157 -0.171501,-8.5313 0.113111,-9.0631 0.584237,-1.091657 0.752829,-0.0541 0.752829,4.63281 0,3.96173 -0.06417,4.83399 -0.355513,4.83399 -0.195532,0 -0.425228,-0.18166 -0.510427,-0.4037 z m 54.318947,0.0761 c -0.0691,-0.18017 -0.0942,-2.39095 -0.0558,-4.91285 0.0591,-3.87455 0.12926,-4.585237 0.45275,-4.585237 0.21055,0 0.41951,0.258397 0.46436,0.574227 0.10155,0.71503 0.12269,0.71397 1.2673,-0.0638 1.05798,-0.718907 2.60695,-0.873437 2.60695,-0.26007 0,0.20787 -0.31582,0.44253 -0.70183,0.52147 -1.09505,0.22393 -1.88123,0.6961 -2.46353,1.47958 -0.4682,0.62994 -0.54636,1.14933 -0.62408,4.1472 -0.0716,2.76395 -0.15962,3.42711 -0.45462,3.42711 -0.20118,0 -0.42236,-0.14742 -0.49151,-0.3276 z M 53.626812,93.456421 c -0.233111,-0.607484 -0.186991,-1.719852 0.08945,-2.157092 0.407563,-0.644657 0.813147,0.07328 0.724924,1.283226 -0.08233,1.129058 -0.531493,1.611035 -0.814369,0.873866 z m 2.793268,-0.266767 c -0.2202,-0.877363 0.06895,-2.203974 0.452504,-2.076119 0.384853,0.128284 0.391363,2.533782 0.0072,2.661835 -0.158709,0.05291 -0.365575,-0.21067 -0.459707,-0.585716 z"
     style="fill:#333333" />
  <path
     id="path4763"
     d="M 57.408449,77.5719 C 44.92981,77.050387 42.459665,77.095557 42.638635,76.805974 c 0.190241,-0.307822 19.624352,-0.797688 28.848938,-0.797688 14.847645,0 16.327058,-0.47573 18.601697,-1.576899 3.046703,-1.474886 4.205991,-3.250193 4.767612,-6.802989 0.242217,-1.532259 0.318847,-12.264622 0.170293,-23.849696 l -0.270103,-21.063765 -23.400668,0 c -23.343862,0 -23.405166,0.0029 -25.255236,1.262211 -2.577054,1.753924 -3.776847,3.710966 -4.330195,6.575231 -0.259779,1.34467 -0.675077,12.596351 -0.688512,24.886541 -0.01924,17.618658 -0.01321,21.301392 -0.566097,21.117188 -0.955123,-0.318214 -0.283518,-44.594233 0.642796,-48.059383 0.791413,-2.960531 3.523709,-6.628125 6.555702,-7.444551 1.428386,-0.384627 10.469036,-0.542022 25.682644,-0.447126 l 23.478291,0.146451 0.146432,23.823428 0.146432,20.704784 -0.05866,2.077755 c -0.151028,5.349332 -2.202092,10.001087 -10.383715,10.345537 -5.682229,0.239225 -11.561998,0.479219 -22.199192,0.14011 z m -3.44782,-12.432977 c 0,-0.424412 0.631107,-2.198707 1.402457,-3.942875 1.938436,-4.383146 1.861829,-4.822158 -0.841473,-4.822158 -1.641279,0 -2.243931,-0.230775 -2.243931,-0.859275 0,-0.731074 0.962821,-0.835693 6.453398,-0.701224 6.803166,0.166609 8.950725,1.07515 3.688635,1.560499 l -3.041058,0.280493 -1.948507,4.628104 c -1.078938,2.562707 -2.287894,4.628112 -2.709008,4.628112 -0.418285,0 -0.760513,-0.347247 -0.760513,-0.771676 z M 75.5722,52.867749 C 69.535718,38.51641 68.710115,36.733232 68.111036,36.75272 c -0.223485,0.0073 -0.958238,1.269487 -1.632791,2.804914 -1.244596,2.832989 -2.419927,3.669353 -2.419927,1.72202 0,-1.288824 3.03334,-8.195289 3.810295,-8.675473 0.302745,-0.187106 0.814125,-0.02244 1.136404,0.365856 0.776445,0.935561 13.565728,31.324437 13.565728,32.233804 0,0.388719 -0.340303,0.706758 -0.756222,0.706758 -0.455321,0 -2.939173,-5.189833 -6.242323,-13.04285 z M 54.202358,50.701346 c -0.710732,-1.149987 1.123525,-1.603048 6.490064,-1.603048 5.366539,0 7.200795,0.453061 6.490063,1.603048 -0.24461,0.39579 -2.616209,0.6237 -6.490063,0.6237 -3.873861,0 -6.245454,-0.22791 -6.490064,-0.6237 z"
     style="fill:#333333"
     inkscape:connector-curvature="0"
     sodipodi:nodetypes="csscsscscsssssscccssccsssssscsssscssscssssssss" />
  <path
     style="fill:#eeeeee"
     id="5"
     d="m 91.98684,28.275832 0.139567,-7.747547 C 92.196488,14.406049 89.252766,10.13377 85.979153,5.9927163 L 117.8661,35.334459 c -4.2005,-2.454235 -8.79698,-6.659609 -16.27351,-6.877038 l -9.60575,-0.181589 z" />
  <path
     style="fill:url(#F-3-5)"
     d="m 91.043806,27.953329 0.147381,-7.989976 C 91.265243,13.649542 88.156689,9.2435786 84.699842,4.972946 l 33.671798,30.259883 c -4.43561,-2.531029 -9.2894,-6.867995 -17.18443,-7.092226 L 91.043806,27.953329 Z"
     id="6" />
</svg>
