<?xml version="1.0" encoding="UTF-8" standalone="no"?>
<svg
   version="1.1"
   id="svg2"
   viewBox="0 0 128 128"
   inkscape:version="1.4.3 (0d15f75042, 2025-12-25)"
   sodipodi:docname="asciiwriter.svg"
   xmlns:inkscape="http://www.inkscape.org/namespaces/inkscape"
   xmlns:sodipodi="http://sodipodi.sourceforge.net/DTD/sodipodi-0.dtd"
   xmlns:xlink="http://www.w3.org/1999/xlink"
   xmlns="http://www.w3.org/2000/svg"
   xmlns:svg="http://www.w3.org/2000/svg"
   xmlns:rdf="http://www.w3.org/1999/02/22-rdf-syntax-ns#"
   xmlns:cc="http://creativecommons.org/ns#"
   xmlns:dc="http://purl.org/dc/elements/1.1/">
  <sodipodi:namedview
     pagecolor="#ffffff"
     bordercolor="#666666"
     borderopacity="1"
     objecttolerance="10"
     gridtolerance="10"
     guidetolerance="10"
     inkscape:pageopacity="0"
     inkscape:pageshadow="2"
     inkscape:window-width="2048"
     inkscape:window-height="1083"
     id="namedview33"
     showgrid="false"
     inkscape:zoom="3.6875"
     inkscape:cx="151.72881"
     inkscape:cy="135.86441"
     inkscape:window-x="0"
     inkscape:window-y="0"
     inkscape:window-maximized="1"
     inkscape:current-layer="svg2"
     inkscape:showpageshadow="2"
     inkscape:pagecheckerboard="0"
     inkscape:deskcolor="#d1d1d1" />
  <metadata
     id="metadata34">
    <rdf:RDF>
      <cc:Work
         rdf:about="">
        <dc:format>image/svg+xml</dc:format>
        <dc:type
           rdf:resource="http://purl.org/dc/dcmitype/StillImage" />
        <dc:title />
      </cc:Work>
    </rdf:RDF>
  </metadata>
  <defs
     id="0">
    <linearGradient
       id="8">
      <stop
         stop-color="#cbcbcb"
         id="I" />
      <stop
         stop-color="#eee"
         id="J"
         offset="1" />
    </linearGradient>
    <linearGradient
       id="9">
      <stop
         stop-color="#fd0"
         id="K" />
      <stop
         stop-color="#e3ad00"
         id="L"
         offset="1" />
    </linearGradient>
    <linearGradient
       id="A">
      <stop
         id="M" />
      <stop
         stop-opacity="0.536"
         id="N"
         offset="1" />
    </linearGradient>
    <linearGradient
       id="B">
      <stop
         id="O" />
      <stop
         stop-opacity="0"
         stop-color="#ddd"
         id="P"
         offset="1" />
    </linearGradient>
    <filter
       height="1.3408285"
       y="-0.17041424"
       width="1.2902653"
       x="-0.14513263"
       id="C">
      <feGaussianBlur
         id="Q"
         stdDeviation="1.81881" />
    </filter>
    <filter
       id="D"
       x="-0.069831288"
       y="-0.052595388"
       width="1.1396626"
       height="1.1051908">
      <feGaussianBlur
         id="R"
         stdDeviation="2.58594" />
    </filter>
    <radialGradient
       id="E"
       gradientUnits="userSpaceOnUse"
       gradientTransform="matrix(1,0,0,0.97467889,0,0.43910718)"
       cx="89.51"
       cy="22.254"
       r="18.279"
       xlink:href="#A" />
    <linearGradient
       y2="25.1"
       x2="86.82"
       y1="14.793"
       x1="98.33"
       gradientTransform="matrix(1.1027844,0,0,0.96494206,-1.6466334,2.3073887)"
       gradientUnits="userSpaceOnUse"
       id="F"
       xlink:href="#B" />
    <radialGradient
       r="44.42"
       cy="100.32"
       cx="81.79"
       gradientTransform="matrix(2.2824714,-1.6069793,2.0257174,2.2425778,-321.01325,26.027991)"
       gradientUnits="userSpaceOnUse"
       id="G"
       xlink:href="#9" />
    <linearGradient
       y2="25.1"
       x2="86.82"
       y1="14.793"
       x1="98.330002"
       gradientTransform="matrix(1.1027844,0,0,0.96494206,53.32121,28.3893)"
       gradientUnits="userSpaceOnUse"
       id="F-3"
       xlink:href="#B" />
    <linearGradient
       y2="25.1"
       x2="86.82"
       y1="14.793"
       x1="98.330002"
       gradientTransform="matrix(1.0903653,0,0,0.95676899,-0.45572616,2.3327971)"
       gradientUnits="userSpaceOnUse"
       id="F-3-5"
       xlink:href="#B" />
  </defs>
  <path
     filter="url(#D)"
     opacity="0.809"
     transform="matrix(0.96714879,0,0,0.97126149,1.5886796,2.6954315)"
     id="1"
     d="m 20.09375,4.1185004 0,117.9999996 88.84375,0 0,-86.15625 -0.59375,-0.625 c 0.21045,0.144391 0.41688,0.302162 0.625,0.4375 L 78.09375,4.1497504 c 0.05654,0.079597 0.09993,0.1703021 0.15625,0.25 l -0.25,-0.28125 -57.90625,0 z" />
  <path
     style="fill:url(#G)"
     id="2"
     d="M 19.915232,4.734986 V 119.56941 H 117.84848 V 35.724466 L 83.745803,4.734986 Z" />
  <path
     style="opacity:0.50499998;fill:url(#E);filter:url(#C)"
     transform="matrix(1.016085,0,0,1.112241,2.0563738,-0.67863929)"
     d="m 81.698039,28.309502 0.135161,-8.351 C 81.901124,13.359407 80.956142,8.4107397 77.785779,3.9471419 L 80.362343,3.9159389 107.86271,29.53084 c -4.06802,-2.645393 -9.621189,-0.791242 -16.861906,-1.025606 l -9.302765,-0.195732 z"
     id="4" />
  <path
     id="path4763"
     d="m 55.995214,87.140657 c -13.884373,-0.06056 -17.725606,0.531901 -17.075609,-0.885498 0.779779,-1.700405 22.688015,-0.92222 33.3527,-0.92222 17.16559,0 18.875962,-0.549999 21.505707,-1.823077 3.522341,-1.705138 4.862611,-3.757598 5.51191,-7.86504 0.280031,-1.771468 0.368624,-14.179318 0.196878,-27.572999 L 99.17453,23.719681 H 72.120659 c -26.988197,0 -27.059072,0.0034 -29.197966,1.459261 -2.979372,2.027739 -3.45695,3.994092 -4.103581,8.200264 -0.58765,3.822517 -1.107818,13.964296 -1.12335,28.173174 -0.02224,20.3692 -0.590543,24.626866 -1.229747,24.413905 -1.104232,-0.367892 -0.255848,-51.537537 0.743147,-55.56219 1.18615,-4.778648 4.073814,-7.662877 7.579147,-8.60676 1.651379,-0.444673 12.103413,-0.62664 29.692099,-0.516929 l 27.143612,0.169314 0.16929,27.542631 0.16929,23.937118 -0.0678,2.402124 C 101.7202,81.516038 99.348933,86.894004 89.890033,87.292228 83.320721,87.568799 76.52303,87.84626 64.225207,87.454211 Z M 52.009136,72.766702 c 0,-0.490669 0.822735,-2.503305 1.621402,-4.558418 1.85754,-4.779786 3.590672,-5.574971 0.465343,-5.574971 -1.897507,0 -3.169516,-0.458561 -3.169516,-1.185179 0,-0.845206 0.250377,-0.78058 6.597963,-0.618938 16.882193,0.429907 18.88084,1.627616 15.961711,1.708238 l -15.213037,0.420161 -2.252699,5.350622 c -1.247377,2.962785 -2.64507,5.350631 -3.131926,5.350631 -0.483586,0 -0.879241,-0.401457 -0.879241,-0.892146 z M 76.994605,58.579809 C 70.015736,41.988006 69.061243,39.926447 68.368639,39.948977 c -0.258375,0.0084 -1.149464,1.449961 -1.887695,3.242804 -8.533934,20.725219 -8.45457,16.418814 -8.45457,14.167473 0,-1.490029 9.163746,-21.651318 10.061996,-22.206467 0.350008,-0.216316 0.941222,-0.02594 1.313814,0.422972 0.89766,1.081617 15.683546,36.214662 15.683546,37.265996 0,0.449404 -2.311007,0.24182 -2.791858,0.24182 -0.526403,0 -1.480445,-5.424772 -5.299267,-14.503766 z"
     style="fill:#333333;stroke-width:1.15612"
     inkscape:connector-curvature="0"
     sodipodi:nodetypes="csscsscscsssssscccssccsssssscsssscssscsss" />
  <path
     style="fill:#eeeeee"
     id="5"
     d="m 91.98684,28.275832 0.139567,-7.747547 C 92.196488,14.406049 89.252766,10.13377 85.979153,5.9927163 L 117.8661,35.334459 c -4.2005,-2.454235 -8.79698,-6.659609 -16.27351,-6.877038 l -9.60575,-0.181589 z" />
  <path
     style="fill:url(#F-3-5)"
     d="m 91.043806,27.953329 0.147381,-7.989976 C 91.265243,13.649542 88.156689,9.2435786 84.699842,4.972946 l 33.671798,30.259883 c -4.43561,-2.531029 -9.2894,-6.867995 -17.18443,-7.092226 L 91.043806,27.953329 Z"
     id="6" />
  <path
     style="fill:#333333"
     d="m 23.153779,107.15593 c 1.577103,-4.69294 4.653239,-10.74998 5.459499,-10.74998 0.763796,0 5.60633,10.61514 5.60633,12.28943 0,1.56568 -2.023419,0.58271 -2.654288,-1.28945 -0.423698,-1.25735 -1.606411,-1.99999 -3.185146,-1.99999 -1.578734,0 -2.761447,0.74264 -3.185145,1.99999 -0.370673,1.1 -1.151722,2 -1.735666,2 -0.617266,0 -0.745188,-0.94188 -0.305584,-2.25 z m 6.141197,-5.24999 c -0.765757,-1.87953 -1.063846,-1.87953 -1.829603,0 -0.36853,0.90454 -0.0054,1.5 0.914801,1.5 0.920184,0 1.283332,-0.59546 0.914802,-1.5 z m 5.986347,6.62977 c 0.338983,-1.26017 2.647772,-1.28707 3.157005,-1.42506 l 2.140055,-0.22473 -2.425952,-1.45527 c -0.359989,-0.21595 -2.871681,-2.02408 -2.654288,-3.45609 0.353374,-2.32773 5.289504,-3.31862 7.159419,-1.5574 0.827663,0.77955 -0.382083,2.64198 -2.250585,1.39556 -2.902298,-1.93603 -3.848013,0.76946 -0.613365,2.10609 1.331699,0.55028 2.772375,0.91341 3.443527,2.79536 0.512412,1.43684 -1.873377,2.26611 -4.505242,2.50512 -1.897816,0.17235 -3.593007,-0.15408 -3.450574,-0.68358 z m 9.767779,-0.32978 c -3.032355,-2.85609 -0.25604,-8.79998 4.110354,-8.79998 2.853273,0 2.573021,1.79061 -0.341265,2.18044 -1.749834,0.23407 -2.388859,0.9883 -2.388859,2.81955 0,1.83124 0.639025,2.58547 2.388859,2.81954 1.313872,0.17576 2.388859,0.73826 2.388859,1.25 0,1.34727 -4.657814,1.14339 -6.157948,-0.26955 z m 8.281378,-3.79999 c 0,-2.75 0.477772,-4.99999 1.061715,-4.99999 0.583944,0 1.061715,2.24999 1.061715,4.99999 0,2.74999 -0.477771,4.99999 -1.061715,4.99999 -0.583943,0 -1.061715,-2.25 -1.061715,-4.99999 z m 4.246861,0.55901 c 0,-2.44254 0.477772,-4.71909 1.061715,-5.059 0.654369,-0.38092 1.061715,1.32295 1.061715,4.44097 0,2.78246 -0.477772,5.05901 -1.061715,5.05901 -0.583943,0 -1.061715,-1.99844 -1.061715,-4.44098 z m 6.925709,3.19098 c -1.039596,-2.95572 -2.667483,-9.3505 -2.672928,-10.49998 -0.01293,-2.72862 1.923213,-1.03903 2.578317,2.25 0.866514,4.35041 2.121131,4.47219 3.382917,0.32834 1.363031,-4.47635 3.327273,-4.65569 4.178599,-0.38151 0.721913,3.62444 1.54016,5.82188 2.594828,3.17727 0.855487,-2.14515 1.432654,-6.88004 2.930529,-6.86284 1.533064,0.0176 -2.07246,13.23872 -3.468481,13.23872 -0.720233,0 -1.948871,-2.1375 -2.730306,-4.74999 l -1.42079,-4.74999 -1.43319,4.74999 c -1.388632,4.60231 -3.036768,6.06658 -3.939495,3.49999 z m 15.371058,-3.49999 c 6.89e-4,-4.36096 0.218078,-4.76181 2.654288,-4.89421 2.915545,-0.15845 3.578948,1.09577 1.060966,2.00583 -0.999599,0.36129 -1.592573,1.89047 -1.592573,4.10699 0,1.94226 -0.477772,3.53138 -1.061715,3.53138 -0.583944,0 -1.061378,-2.1375 -1.060966,-4.74999 z m 7.431257,-0.25 c 0,-2.75 0.477771,-4.99999 1.061715,-4.99999 0.583943,0 1.061715,2.24999 1.061715,4.99999 0,2.74999 -0.477772,4.99999 -1.061715,4.99999 -0.583944,0 -1.061715,-2.25 -1.061715,-4.99999 z m 4.733997,2.25 c -0.338268,-1.5125 0.544864,-5.6169 -0.324888,-5.44759 -1.63364,0.318 -1.473901,-2.31894 0.278207,-1.94961 1.095856,0.231 0.491491,-2.84482 1.146417,-2.8289 1.851777,0.045 0.436255,3.01001 1.072467,3.15383 0.854358,0.19313 2.505423,-0.15918 2.505423,0.39082 0,0.55 -0.57284,1.43145 -1.44876,1.43145 -0.996199,0 -1.592573,0.94793 -1.592573,2.53138 0,1.39226 0.716658,2.79041 1.592573,3.10699 2.29232,0.82851 1.96083,2.36162 -0.51063,2.36162 -1.437493,0 -2.297873,-0.87043 -2.718236,-2.74999 z m 7.157216,1.54999 c -2.72815,-2.56956 -0.34419,-8.79998 3.367142,-8.79998 1.90202,0 3.85251,2.12641 3.85251,4.19999 0,1.34105 -0.8281,1.8 -3.2478,1.8 -1.89484,0 -2.97445,0.41657 -2.59163,1 0.3609,0.54999 1.82241,0.99999 3.24781,0.99999 1.42539,0 2.59162,0.45 2.59162,1 0,1.40664 -5.68096,1.24927 -7.219652,-0.2 z m 5.096222,-5.79999 c 0,-0.55 -0.68846,-1 -1.52991,-1 -0.84145,0 -1.82519,0.45 -2.18609,1 -0.36089,0.55 0.32757,1 1.52991,1 1.20235,0 2.18609,-0.45 2.18609,-1 z m 4.00716,1.67279 c 0.86291,-7.86485 0.77739,-2.98077 2.71539,-4.64548 1.32936,-1.14189 4.13431,0.3346 4.13431,0.84782 0,0.51321 -0.97794,1.46099 -1.71869,1.12487 -2.95824,-1.34229 -2.76788,2.12968 -2.76788,5.58178 0,1.33002 -0.47777,2.41821 -1.06171,2.41821 -0.58394,0 -1.59221,-2.67682 -1.30142,-5.3272 z M 53.33048,97.40595 c 0,-0.55 0.477772,-1 1.061715,-1 0.583944,0 1.061715,0.45 1.061715,1 0,0.55 -0.477771,1 -1.061715,1 -0.583943,0 -1.061715,-0.45 -1.061715,-1 z m 4.246861,0 c 0,-0.55 0.477772,-1 1.061715,-1 0.583943,0 1.061715,0.45 1.061715,1 0,0.55 -0.477772,1 -1.061715,1 -0.583943,0 -1.061715,-0.45 -1.061715,-1 z m 29.728024,0 c 0,-0.55 0.477771,-1 1.061715,-1 0.583943,0 1.061715,0.45 1.061715,1 0,0.55 -0.477772,1 -1.061715,1 -0.583944,0 -1.061715,-0.45 -1.061715,-1 z"
     id="path1-6"
     sodipodi:nodetypes="sssssssssssssscsssssssssssssssssssssssssssssssssscsssssssssssssssssssssssssssssssssssssssssssssssssssssssssss" />
</svg>
