<?xml version="1.0" encoding="UTF-8" standalone="no"?>
<svg
   viewBox="0 0 342 258"
   version="1.1"
   id="svg30"
   sodipodi:docname="handlebars.svg"
   inkscape:version="1.4.3 (0d15f75042, 2025-12-25)"
   xmlns:inkscape="http://www.inkscape.org/namespaces/inkscape"
   xmlns:sodipodi="http://sodipodi.sourceforge.net/DTD/sodipodi-0.dtd"
   xmlns:xlink="http://www.w3.org/1999/xlink"
   xmlns="http://www.w3.org/2000/svg"
   xmlns:svg="http://www.w3.org/2000/svg">
  <defs
     id="defs30">
    <filter
       id="b"
       width="1.2576486"
       height="1.6176311"
       x="-0.10572722"
       y="-0.3091377"
       style="color-interpolation-filters:sRGB">
      <feGaussianBlur
         stdDeviation=".5"
         id="feGaussianBlur2" />
    </filter>
    <filter
       id="c"
       width="1.2576486"
       height="1.6176311"
       x="-0.10572722"
       y="-0.3091377"
       style="color-interpolation-filters:sRGB">
      <feGaussianBlur
         stdDeviation=".5"
         id="feGaussianBlur1" />
    </filter>
    <radialGradient
       xlink:href="#a"
       id="d"
       cx="129.16"
       cy="146.10001"
       r="9.5200005"
       fx="129.16"
       fy="146.10001"
       gradientTransform="matrix(0.1963399,0,-0.01033367,1.6223875,-8.012234,-98.237699)"
       gradientUnits="userSpaceOnUse" />
    <linearGradient
       id="a">
      <stop
         offset="0"
         style="stop-color:#dcdcdc;stop-opacity:1"
         id="stop2" />
      <stop
         offset="1"
         style="stop-color:#b5b5b5;stop-opacity:1"
         id="stop3" />
    </linearGradient>
  </defs>
  <sodipodi:namedview
     id="namedview30"
     pagecolor="#ffffff"
     bordercolor="#000000"
     borderopacity="0.25"
     inkscape:showpageshadow="2"
     inkscape:pageopacity="0.0"
     inkscape:pagecheckerboard="0"
     inkscape:deskcolor="#d1d1d1"
     inkscape:zoom="2.6988304"
     inkscape:cx="120.6078"
     inkscape:cy="143.02492"
     inkscape:window-width="2048"
     inkscape:window-height="1083"
     inkscape:window-x="0"
     inkscape:window-y="0"
     inkscape:window-maximized="1"
     inkscape:current-layer="g11" />
  <g
     fill="none"
     stroke-width="2"
     id="g11">
    <path
       stroke="#858482"
       stroke-opacity=".988"
       d="M8.78.92c-5.5-.71-7.3 2.34-7.25 7.44q.21 21.27-.41 42.3M12.42 18.16q8.24-2.99 15.13-1.2M23.87 50.64q-.17-9.91-.12-20.14 0-.54-.47-1.96M149.27.93c-10.1-1.27-7.54 11.43-7.53 17.47q0 .53-.45.27-.19-.11-.29-.39M117.57 43.48c-4.24-14.29 3.72-30.27 20.7-26.79M164.53.91c-5.52-.7-7.22 2.45-7.21 7.51q.08 21.21-.37 42.28M217.76.76c-5.16-.28-6.73 2.32-6.8 7.19q-.33 21.15-.29 42.28M223.58 17.79q5.37-2.51 11.7-1.06M59.93 16.66c-16.75-3.02-24.58 12.57-20.35 26.82M63.33 18.94l.63.65q.37.37.68-.05 2.35-3.18 6.6-2.58M104 16.51c-4.52-.58-9.71-.83-13.14 2.94q-.33.36-.72.06-.44-.34-.51-.64M101.84 50.61q-.13-9.7-.09-19.77c0-.88-.25-1.52-.51-2.3M87.13 16.97c-6.08-.74-7.65 2.21-7.59 7.78q.13 13.04-.33 25.94M196.02 16.9c-17.2-4.2-28.08 10.4-23.54 26.72M187.3 44.37q6.06 1.82 11.76-1.31 2.33-1.27 4.19-1.41M269.94 16.4c-16.67-2.05-23.62 13.38-19.36 27.41M274.23 19.03q.35.35.71.49.45.18.73-.21 2.18-3.03 6.39-2.36M310.19 16.17q-4.9-.29-8.21 3.2-.34.36-.8.16-.34-.16-.52-.49M314.34 21.42q.04 2.46-1.23 4.35M297.94 16.95q-8.11-.93-7.88 8.11.22 8.31.24 26.23M312.71 49.51c-.24-5.07 2.24-8.56 7.56-6.47M323.68 44.53c1.8.97 8.14 2.33 6.41-2.04M314.24 33.2q-1.25-6.32.67-9.88M334.39 17.28q-12.13-3.64-18.82 4.81"
       vector-effect="non-scaling-stroke"
       id="path1" />
    <path
       stroke="#f5f6f7"
       d="M246.29 105.82q-.46 1.51-2.12 1.58c-3.26.13-6.27-6.28-10.61-6.56q-.5-.03-.86-.38-4.31-4.11-9.46-7.05c-1.88-1.07-4.41-1.25-6.66-2.21q-9.64-4.1-20.01-2.74c-6.28.83-12.6 4.59-18.09 6.55-4.25 1.51-5.86 4.48-10.88 1.54q-3.55-2.08-7.09-4.08-.43-.24-2.51-2.01c-2-1.71-5.81-2.23-7.84-2.51q-.16-.02-.16-.18v-.28q.01-.19-.18-.2c-3.29-.18-6.46-.98-9.71-.61q-4.4.51-8.81.96c-1.99.2-3.67 1.3-5.65 1.86-5.92 1.68-11.66 5.62-16.5 9.33-2.29 1.76-5.43 3.4-7.86 5.63a.6.6 0 0 1-1.01-.4l-.07-.98"
       vector-effect="non-scaling-stroke"
       id="path3" />
    <path
       stroke="#f5f6f7"
       d="m246.85 104.95.47.42q.4.35.87.11c3.8-1.95 6.6-5.48 9.92-7.1q11.8-5.76 24.17.5a1.05 1.02-.7 0 1 .42.4q.67 1.17 2 .95.57-.09 1.02.27 14.62 11.82 12.22 31.44c-1.48 12.09-6.44 18.4-15.92 25.37q-.39.29-.86.41-1.31.34-2.19 1.53a.7.69-83.9 0 1-.32.26c-15.2 6.51-32.79 6.97-48.49 1.86-8.36-2.72-14.61-5.88-21.87-9.18-.45-.2-.8-.18-1.28-.19q-.44-.01-.76-.31c-3.6-3.47-12.22-5.05-16.26-5.07M189.98 147.68q-.84 1.98-2.15 2.97-.37.28-.36.75.11 11.81-.1 23.62c-.08 4.42.14 11.75-.48 17.68-.14 1.34.41 2.47.28 3.89-.63 6.94.46 14.68.37 20.47-.13 8.81.58 19.14-1.93 27.57-.99 3.31-2.7 4.53-4.94 6.88q-1.41 1.48-3.11 2.08-14.08 5.02-21.51-8.42c-1.81-3.27-1.56-13.11-1.56-16.93q.04-38.15-.02-76.3 0-1.77-1.35-4.18-.33-.59-.72-.03l-.6.87M150.68 147.52c-3.28-2.34-8.17 1.27-11.33 2.31-2.83.92-4.88 2.9-7.35 3.86q-3.73 1.45-7.53 2.7-.11.04-.15.15l-.12.37a.55.54.8 0 1-.37.35q-6.2 1.61-11.67 4.96-.42.25-.91.26-2.66.05-5.06 1.21a1.38 1.35-50.6 0 1-.93.1q-1.34-.33-2.41.35-.45.28-.98.34c-3.11.36-5.83.23-9.15.76q-3.35.53-6.78.05c-3.05-.43-5.96-.09-8.83-.87q-5.21-1.41-10.21-3.43c-2.73-1.1-5.11-3.13-7.92-4.52a1.31 1.3-88.7 0 1-.61-.64c-.87-2.02-2.76-2.56-3.86-3.75q-2.15-2.33-3.7-5.1-.23-.41-.69-.53-.32-.09-.5-.35c-5.82-8.66-6.66-26.48-1.06-35.38q.05-.08 1.96-3.66c1.33-2.51 4.32-4.25 6.13-5.98 2.04-1.95 5.27-2.61 6.82-4.26q.34-.35.82-.43 9.72-1.42 15.27-.48 3.26.55 8.49 4.18.42.29.62.77.37.88 1.31 1.02.47.07.71.48 1.64 2.82 5.16 2.46"
       vector-effect="non-scaling-stroke"
       id="path4" />
    <path
       stroke="#858482"
       stroke-opacity=".988"
       d="M132.89 44.5q10.76.38 8.2-12.64M226.7 44.48q12.95.48 8.28-14.38M54.67 44.39c7.69 1.36 10.63-6.46 8.39-12.43M183.16 31.12q6.57 1.54 13.56-.04M264.45 43.81q8.38 2.81 9.75-5.84"
       vector-effect="non-scaling-stroke"
       id="path6" />
    <g
       id="g1"
       transform="matrix(2.8745531,0,0,2.8745531,126.20566,-217.25255)">
      <path
         d="m -18.239131,119.84768 c 0.750913,-0.62 1.298598,-1.4467 1.570721,-2.37673 a 2.8107604,2.8107604 0 0 0 -1.570721,-3.61334 c -4.615711,-2.33541 -7.595253,1.82561 -8.025825,2.79697 -0.434013,0.97482 -1.198707,2.50765 -0.716469,6.01765 0.482243,3.51346 2.176965,6.75134 7.474696,8.02582 a 22.403415,22.403415 0 0 0 15.0423888,-1.75672 l 15.6589692,-6.52745 a 19.199974,19.199974 0 0 1 4.422815,-0.55111 v -5.33908 a 12.248854,12.248854 0 0 0 -11.8596207,-6.2381 c -8.4529447,0.6648 -11.8113894,5.01528 -13.8436823,6.88223 -2.028844,1.86006 -5.876421,6.25532 -8.435728,5.48375 -2.555863,-0.77158 -3.27922,-3.93369 -2.376742,-4.90506 0.902473,-0.97137 1.615497,-0.79914 2.17696,0 0.344455,0.64413 0.516682,1.36749 0.49946,2.09773 z"
         style="fill:#322214;fill-opacity:1;stroke:none;stroke-width:0.86114;stroke-linecap:round;stroke-linejoin:round;stroke-miterlimit:4;stroke-dasharray:none;stroke-opacity:1"
         id="path3-3" />
      <path
         d="m 49.181229,119.84768 a 4.8327168,4.8327168 0 0 1 -1.570716,-2.37673 2.8107604,2.8107604 0 0 1 1.570716,-3.61334 c 4.615711,-2.33541 7.595253,1.82561 8.025826,2.79697 0.434012,0.97137 1.195262,2.50765 0.713024,6.01765 -0.482238,3.51346 -2.176965,6.75134 -7.474695,8.02582 a 22.403415,22.403415 0 0 1 -15.04239,-1.75672 l -15.658969,-6.52399 a 19.199974,19.199974 0 0 0 -4.422814,-0.55113 v -5.33907 a 12.248854,12.248854 0 0 1 11.859619,-6.23811 c 8.456395,0.6648 11.814839,5.01529 13.847127,6.88224 2.028849,1.86006 5.876421,6.25532 8.435728,5.48374 2.559307,-0.77158 3.27922,-3.93369 2.376747,-4.90505 -0.902477,-0.97137 -1.612057,-0.79914 -2.176964,0 -0.344455,0.64412 -0.516682,1.36748 -0.499461,2.09772 z"
         style="fill:#322214;fill-opacity:1;stroke:none;stroke-width:0.86114;stroke-linecap:round;stroke-linejoin:round;stroke-miterlimit:4;stroke-dasharray:none;stroke-opacity:1"
         id="path4-6" />
      <path
         d="m 2.68,13.3 c 0,0 3.7,-1.99 5.09,-2.78 1.38,-0.78 1.85,-1.87 3.26,-1.91 1.4,-0.05 4.12,2.1 4.12,2.1 0,0 -2.8,0.08 -3.88,0.35 -1.07,0.27 -1.12,0.66 -2.55,1.1 C 7.3,12.59 2.68,13.3 2.68,13.3 Z"
         style="fill:#5a4d42;fill-opacity:1;stroke:#5a4d42;stroke-width:0.5px;stroke-linecap:butt;stroke-linejoin:miter;stroke-opacity:1;filter:url(#b)"
         transform="matrix(2.6626445,0,0,2.1011812,-27.132981,98.098748)"
         id="path5" />
      <path
         d="m 2.68,13.3 c 0,0 3.7,-1.99 5.09,-2.78 1.38,-0.78 1.85,-1.87 3.26,-1.91 1.4,-0.05 4.12,2.1 4.12,2.1 0,0 -2.8,0.08 -3.88,0.35 -1.07,0.27 -1.12,0.66 -2.55,1.1 C 7.3,12.59 2.68,13.3 2.68,13.3 Z"
         style="fill:#5a4d42;fill-opacity:1;stroke:#5a4d42;stroke-width:0.5px;stroke-linecap:butt;stroke-linejoin:miter;stroke-opacity:1;filter:url(#c)"
         transform="matrix(-2.6626445,0,0,2.1011812,57.634178,98.098748)"
         id="path6-7" />
      <path
         d="m 18.193974,121.14284 v 35.92676 c 0,1.79462 -1.119482,3.23788 -2.514529,3.23788 -1.388157,0 -2.507639,-1.44326 -2.507639,-3.23788 v -35.90608 c 1.739503,-0.28935 3.771793,-0.28935 5.022168,-0.0241 z"
         style="fill:url(#d);fill-opacity:1;stroke:none;stroke-width:1.55189;stroke-linejoin:round;stroke-miterlimit:4;stroke-dasharray:none;stroke-dashoffset:0;stroke-opacity:1"
         id="path7" />
      <path
         d="m 25.951121,109.37279 a 13.09966,13.09966 0 0 0 -10.481794,5.38384 13.096215,13.096215 0 0 0 -11.0363675,-5.37696 c -0.2480078,0.007 -0.4925712,0.0241 -0.7371346,0.0483 h -0.00337 c -8.7285168,0.68891 -12.4727535,5.37351 -14.3603679,7.10613 -1.060928,0.9748 -2.507642,2.51451 -3.975023,3.69256 a 10.171784,10.171784 0 0 1 -2.111513,1.36749 c -0.644137,0.2859 -1.150485,0.34446 -1.515606,0.23423 a 3.0243232,3.0243232 0 0 1 -1.932402,-1.86006 c -0.310011,-0.80603 -0.120563,-1.57417 -0.06544,-1.63616 0.358233,-0.38235 0.527015,-0.38924 0.533904,-0.38924 0.0069,0 0.103343,0.0344 0.272122,0.25834 a 3.3584454,3.3584454 0 0 1 0.368566,1.52938 0.86113983,0.86113983 0 0 0 1.095371,0.94381 l 0.01722,-0.004 a 0.86113983,0.86113983 0 0 0 0.440906,-0.30313 c 0.792249,-0.70268 1.377823,-1.60171 1.680945,-2.61786 a 3.6856786,3.6856786 0 0 0 -2.039181,-4.68116 c -2.538642,-1.26414 -4.832715,-0.76124 -6.38277,0.22045 -1.563827,0.9886 -2.445633,2.27686 -2.772867,3.01399 -0.41335,0.93692 -1.281375,2.82455 -0.775026,6.48611 0.254896,1.85661 0.840469,3.71324 2.114956,5.27706 1.274487,1.56727 3.217223,2.79698 6.007316,3.46867 h 0.0069 a 23.264555,23.264555 0 0 0 15.6245182,-1.82561 l -0.055109,0.0276 15.5797408,-6.49644 c 0.285898,-0.069 0.575241,-0.10677 0.861139,-0.16189 v 34.04947 c 0,2.12873 1.395047,4.04391 3.372224,4.04391 1.977177,0 3.372224,-1.91518 3.372224,-4.04391 v -33.97025 c 0.144671,0.031 0.292787,0.0483 0.437459,0.0827 l 15.579744,6.49645 -0.05167,-0.0241 a 23.264555,23.264555 0 0 0 15.621074,1.82561 h 0.0069 c 2.790094,-0.67513 4.732823,-1.90484 6.00731,-3.47212 1.274489,-1.56383 1.860061,-3.42044 2.118402,-5.27706 0.502909,-3.66501 -0.361675,-5.54918 -0.778466,-6.4861 -0.330682,-0.73714 -1.205596,-2.0254 -2.769428,-3.014 -1.553499,-0.9817 -3.847571,-1.48116 -6.386214,-0.22044 a 3.6856786,3.6856786 0 0 0 -2.039181,4.6846 5.6835231,5.6835231 0 0 0 1.680945,2.61786 c 0.113668,0.14123 0.268679,0.24801 0.447795,0.29968 l 0.01722,0.007 a 0.86113983,0.86113983 0 0 0 1.088483,-0.95071 3.3584454,3.3584454 0 0 1 0.36857,-1.52594 c 0.172227,-0.2239 0.265229,-0.25833 0.275562,-0.25833 0.0034,0 0.172227,0.007 0.530464,0.38923 0.05511,0.062 0.244564,0.83014 -0.06545,1.63272 a 3.0243232,3.0243232 0 0 1 -1.928953,1.86006 c -0.36857,0.11371 -0.874918,0.0551 -1.515607,-0.23079 -0.644132,-0.28244 -1.377827,-0.77846 -2.114962,-1.36749 -1.46738,-1.18149 -2.914095,-2.71776 -3.975022,-3.69601 -1.887615,-1.72917 -5.628408,-6.41377 -14.356921,-7.10268 a 13.113438,13.113438 0 0 0 -1.302044,-0.0551 z m 0.01034,1.72228 a 11.391158,11.391158 0 0 1 1.150483,0.0482 c 8.184272,0.64413 11.160375,4.66049 13.330447,6.65833 0.964476,0.88525 2.459416,2.48009 4.06458,3.76835 a 11.553052,11.553052 0 0 0 2.49386,1.60172 c 0.861142,0.37891 1.798058,0.57868 2.710868,0.30312 a 4.7638257,4.7638257 0 0 0 3.041546,-2.89342 c 0.465017,-1.21249 0.564907,-2.51109 -0.282456,-3.42046 -0.544241,-0.58558 -1.181479,-0.98169 -1.894504,-0.93692 -0.719913,0.0413 -1.253821,0.51324 -1.615502,1.02648 a 0.86113983,0.86113983 0 0 0 -0.05511,0.0895 c -0.09301,0.17222 -0.134339,0.36168 -0.206676,0.5408 a 3.9199086,3.9199086 0 0 1 -0.282452,-0.71992 1.9358424,1.9358424 0 0 1 1.153926,-2.5352 c 2.059848,-1.04025 3.547895,-0.6338 4.732823,0.12052 a 6.889119,6.889119 0 0 1 2.118407,2.25963 c 0.44779,1.00236 1.105704,2.19418 0.644132,5.54918 -0.227342,1.65339 -0.726802,3.17588 -1.742948,4.42626 -1.019591,1.25037 -2.569641,2.27342 -5.073838,2.87966 a 21.542274,21.542274 0 0 1 -14.515369,-1.7154 l -15.655525,-6.52743 a 10.884808,10.884808 0 0 0 -2.652311,-0.55113 l -0.093,36.06453 c -0.0035,1.39504 -0.843917,2.31819 -1.653389,2.31819 -0.802582,0 -1.646499,-0.92315 -1.646499,-2.32163 l 0.01722,-36.06799 -0.992033,0.12745 c -0.695801,0.093 -1.384713,0.2239 -2.066736,0.38924 a 0.86113983,0.86113983 0 0 0 -0.124004,0.0413 l -15.6589671,6.52743 -0.051665,0.0241 a 21.542274,21.542274 0 0 1 -14.4637039,1.68783 c -2.504198,-0.59936 -4.054248,-1.62583 -5.070394,-2.8762 -1.019591,-1.25038 -1.519051,-2.76943 -1.746392,-4.42627 -0.461572,-3.355 0.196342,-4.54681 0.644132,-5.54918 a 6.889119,6.889119 0 0 1 2.118406,-2.25963 c 1.188374,-0.75436 2.676421,-1.16081 4.732824,-0.12051 l 0.06545,0.0344 a 1.9358424,1.9358424 0 0 1 1.067812,2.56964 c -0.06889,0.2239 -0.15845,0.44091 -0.261785,0.65102 -0.07233,-0.17911 -0.113668,-0.36856 -0.206676,-0.54079 a 0.86113983,0.86113983 0 0 0 -0.05511,-0.0895 c -0.361681,-0.51669 -0.895585,-0.98516 -1.612053,-1.02649 -0.716469,-0.0447 -1.353712,0.35135 -1.897953,0.93692 -0.847364,0.90937 -0.747473,2.20797 -0.282456,3.42045 a 4.7638257,4.7638257 0 0 0 3.041546,2.89343 c 0.91281,0.27556 1.846282,0.0758 2.710868,-0.30313 0.86114,-0.38233 1.694722,-0.95758 2.49386,-1.60172 1.605169,-1.2917 3.100105,-2.88308 4.0645812,-3.76833 2.1700756,-1.99785 5.1496176,-6.01421 13.330444,-6.65835 h 0.013758 a 11.384269,11.384269 0 0 1 10.8848038,5.58019 0.86113983,0.86113983 0 0 0 1.484605,0 11.384269,11.384269 0 0 1 9.748104,-5.63185 z"
         style="color:#000000;font-style:normal;font-variant:normal;font-weight:400;font-stretch:normal;font-size:medium;line-height:normal;font-family:sans-serif;font-variant-ligatures:normal;font-variant-position:normal;font-variant-caps:normal;font-variant-numeric:normal;font-variant-alternates:normal;font-feature-settings:normal;text-indent:0;text-align:start;text-decoration:none;text-decoration-line:none;text-decoration-style:solid;text-decoration-color:#000000;letter-spacing:normal;word-spacing:normal;text-transform:none;writing-mode:lr-tb;direction:ltr;text-orientation:mixed;dominant-baseline:auto;baseline-shift:baseline;text-anchor:start;white-space:normal;shape-padding:0;clip-rule:nonzero;display:inline;overflow:visible;visibility:visible;isolation:auto;mix-blend-mode:normal;color-interpolation:sRGB;color-interpolation-filters:linearRGB;solid-color:#000000;solid-opacity:1;vector-effect:none;fill:#ffffff;fill-opacity:1;fill-rule:nonzero;stroke:none;stroke-width:1.72228;stroke-linecap:round;stroke-linejoin:round;stroke-miterlimit:4;stroke-dasharray:none;stroke-dashoffset:0;stroke-opacity:1;color-rendering:auto;image-rendering:auto;shape-rendering:auto;text-rendering:auto;enable-background:accumulate"
         id="path8-3" />
    </g>
  </g>
  <path
     fill="#080602"
     fill-opacity=".973"
     d="M8.78.92c-5.5-.71-7.3 2.34-7.25 7.44q.21 21.27-.41 42.3Q.8 28.9.86 6.89C.88 1.59 3.25-1.27 8.78.92ZM149.27.93c-10.1-1.27-7.54 11.43-7.53 17.47q0 .53-.45.27-.19-.11-.29-.39.74-.34.41-1.03-.16-.35-.16-.74c.01-5.18-2.65-19.47 8.02-15.58ZM164.53.91c-5.52-.7-7.22 2.45-7.21 7.51q.08 21.21-.37 42.28-.77-21.66-.45-43.51c.08-5.31 2.41-8.39 8.03-6.28ZM217.76.76c-5.16-.28-6.73 2.32-6.8 7.19q-.33 21.15-.29 42.28-.24-21.42-.35-42.88c-.02-5.1 1.64-8.46 7.44-6.59Z"
     id="path12" />
  <path
     fill="#fff"
     d="M8.78.92c5.5 2.83 3.75 11.58 3.64 17.24q8.24-2.99 15.13-1.2c5.96 2.59 7.41 6.77 7.43 13.33q.04 9.85.02 19.71c0 1.76-1.66 3.7-3.33 4.34q-4.61 1.76-7.8-3.7-.17-9.91-.12-20.14 0-.54-.47-1.96l-1.35-1.77a1.5 1.49-7.9 0 0-.63-.47c-6.68-2.59-8.78 2.05-8.79 7.78q-.02 7.71-.02 15.43c.01 6.6-8.16 6.42-11.37 1.15q.62-21.03.41-42.3C1.48 3.26 3.28.21 8.78.92ZM149.27.93q3.69 1.98 3.7 5.13.08 21.94 0 43.87c-.02 5.26-7.37 5.98-10.35 2.11q-.33-.43-.73-.07c-9.02 8.3-20.65.98-24.32-8.49-4.24-14.29 3.72-30.27 20.7-26.79l2.73 1.59q.1.28.29.39.45.26.45-.27c-.01-6.04-2.57-18.74 7.53-17.47ZM132.89 44.5q10.76.38 8.2-12.64c-4.27-11.58-18.23-1.43-12.2 9.47.91 1.64 2.35 2.34 4 3.17ZM164.53.91c2.65 1.41 3.7 3.16 3.71 6.31q.03 21.02 0 42.03c-.01 6.5-8 7.2-11.29 1.45q.45-21.07.37-42.28c-.01-5.06 1.69-8.21 7.21-7.51ZM217.76.76c6.26 2.64 4.12 12.46 4.44 17.44q.04.54.48.23l.9-.64q5.37-2.51 11.7-1.06c16.08 6.1 16.46 31.82.15 37.89q-7.41 2.76-13.54-2.7-.42-.38-.76.08c-3.31 4.48-8.4 3.14-10.46-1.77q-.04-21.13.29-42.28c.07-4.87 1.64-7.47 6.8-7.19Zm8.94 43.72q12.95.48 8.28-14.38c-7.92-10.36-19.58 5.53-8.28 14.38Z"
     id="path13" />
  <path
     fill="#080602"
     fill-opacity=".973"
     d="M27.55 16.96q-6.89-1.79-15.13 1.2 6.49-4.82 15.13-1.2ZM59.93 16.66c-16.75-3.02-24.58 12.57-20.35 26.82-4.23-6.75-1.28-19.59 5.18-24.68q6.91-5.46 15.17-2.14ZM104 16.51c-4.52-.58-9.71-.83-13.14 2.94q-.33.36-.72.06-.44-.34-.51-.64 6.05-5.37 14.37-2.36ZM138.27 16.69c-16.98-3.48-24.94 12.5-20.7 26.79-2.14-3.09-2.09-11.43-1.14-14.96 2.67-9.86 11.84-15.56 21.84-11.83ZM196.02 16.9c-17.2-4.2-28.08 10.4-23.54 26.72q-5.12-13.51 3.51-22.39c5.41-5.58 12.82-7.21 20.03-4.33ZM235.28 16.73q-6.33-1.45-11.7 1.06l-.08-.67q-.06-.49.41-.67 5.74-2.12 11.37.28ZM269.94 16.4c-16.67-2.05-23.62 13.38-19.36 27.41-1.89-3.29-1-5.76-2.21-8.45q-.2-.45-.06-.93c.77-2.5.85-5.29 1.63-7.45 3.06-8.49 10.98-13.61 20-10.58ZM310.19 16.17q-4.9-.29-8.21 3.2-.34.36-.8.16-.34-.16-.52-.49 4.96-5.09 9.53-2.87ZM334.39 17.28q-12.13-3.64-18.82 4.81l-.05-1.33q-.02-.5.34-.84 7.71-7.35 18.53-2.64Z"
     id="path14" />
  <path
     fill="#fff"
     d="m59.93 16.66 3.4 2.28.63.65q.37.37.68-.05 2.35-3.18 6.6-2.58 3.71 1.92 3.73 4.84.08 14.08-.01 28.14c-.03 5.23-7.36 6-10.35 2.1q-.32-.43-.71-.06c-8.63 8.16-20.79 1.14-24.32-8.5-4.23-14.25 3.6-29.84 20.35-26.82Zm-5.26 27.73c7.69 1.36 10.63-6.46 8.39-12.43-2.44-8.05-12.08-6.01-13.33 1.7q-1.27 7.81 4.94 10.73Z"
     id="path15" />
  <path
     fill="#080602"
     fill-opacity=".973"
     d="M71.24 16.96q-4.25-.6-6.6 2.58-.31.42-.68.05l-.63-.65 2.12-1.8q.37-.32.84-.45 2.92-.81 4.95.27ZM87.13 16.97c-6.08-.74-7.65 2.21-7.59 7.78q.13 13.04-.33 25.94-.72-13.62-.52-27.49c.09-5.57 2.65-8.56 8.44-6.23Z"
     id="path16" />
  <path
     fill="#fff"
     d="M104 16.51c7.14 2.06 8.97 6.79 8.99 14.1q.02 9.69.02 19.4 0 3.14-3.76 4.52-4.26 1.57-7.41-3.92-.13-9.7-.09-19.77c0-.88-.25-1.52-.51-2.3l-1.23-1.66q-.3-.41-.78-.6c-6.7-2.58-8.72 2.08-8.72 7.82l-.02 15.4c0 6.47-8.07 6.55-11.28 1.19q.46-12.9.33-25.94c-.06-5.57 1.51-8.52 7.59-7.78l2.5 1.9q.07.3.51.64.39.3.72-.06c3.43-3.77 8.62-3.52 13.14-2.94ZM196.02 16.9q12.45 5.59 11.76 19.15-.18 3.44-4.29 3.46-9.73.05-19.55-.04a.72.71-8.5 0 0-.69.93q.89 2.72 4.05 3.97 6.06 1.82 11.76-1.31 2.33-1.27 4.19-1.41c5.41 1.54 5.19 7.44.7 10.05-11.11 6.45-26.01 4.92-31.47-8.08-4.54-16.32 6.34-30.92 23.54-26.72Zm-12.86 14.22q6.57 1.54 13.56-.04c-3.21-7.4-10.62-7.22-13.56.04ZM269.94 16.4l4.29 2.63q.35.35.71.49.45.18.73-.21 2.18-3.03 6.39-2.36c2.61 1.14 3.65 2.99 3.66 5.95q.07 13.35.01 26.69c-.03 5.72-6.84 6.45-10.07 2.55q-.32-.38-.71-.07c-9 7.31-20.69 1.66-24.37-8.26-4.26-14.03 2.69-29.46 19.36-27.41Zm-5.49 27.41q8.38 2.81 9.75-5.84c1.51-5.18-2.12-12.9-8.23-10.97-6.94 2.18-7.55 13.35-1.52 16.81Z"
     id="path17" />
  <path
     fill="#080602"
     fill-opacity=".973"
     d="M282.06 16.95q-4.21-.67-6.39 2.36-.28.39-.73.21-.36-.14-.71-.49l.51-.03q.5-.03.51-.53v-.27q0-.25.19-.42 2.91-2.67 6.62-.83ZM297.94 16.95q-8.11-.93-7.88 8.11.22 8.31.24 26.23c-1.83-8.33-.83-17.74-.82-26.3 0-5.75 1.32-10.63 8.46-8.04Z"
     id="path18" />
  <path
     fill="#fff"
     d="M310.19 16.17q3.86 1.8 4.15 5.25.04 2.46-1.23 4.35-4.37 1.83-8.64 3.19c-4.25 1.35-2.98 12.77-2.99 16.41q-.01 4.49-1.33 6.84-3.31 5.89-9.85-.92-.02-17.92-.24-26.23-.23-9.04 7.88-8.11l2.72 2.09q.18.33.52.49.46.2.8-.16 3.31-3.49 8.21-3.2ZM334.39 17.28c8.82 3.15 6.47 14.36-.74 10.77-1.72-.86-10.07-4.35-9.06.74a1 1 0 0 0 .6.72c6.73 2.69 14.27 4.83 15.73 11.03 1.44 6.15-2.28 12.46-8.5 14.09q-12.18 3.18-19.71-5.12c-.24-5.07 2.24-8.56 7.56-6.47l3.41 1.49c1.8.97 8.14 2.33 6.41-2.04l-.58-.6a1.35 1.35 0 0 0-.54-.33q-9.5-2.84-14.73-8.36-1.25-6.32.67-9.88l.66-1.23q6.69-8.45 18.82-4.81Z"
     id="path19" />
  <path
     fill="#080602"
     fill-opacity=".973"
     d="M314.34 21.42q.11 1.84.57 1.9-1.92 3.56-.67 9.88-1.66-4.34-1.13-7.43 1.27-1.89 1.23-4.35ZM23.28 28.54q.47 1.42.47 1.96-.05 10.23.12 20.14-1.08-10.74-.59-22.1ZM101.24 28.54c.26.78.51 1.42.51 2.3q-.04 10.07.09 19.77l-.6-22.07ZM234.98 30.1q4.67 14.86-8.28 14.38 6.14-.71 8-5 1.9-4.38.28-9.38ZM196.72 31.08q-6.99 1.58-13.56.04l13.56-.04ZM63.06 31.96c2.24 5.97-.7 13.79-8.39 12.43 7.2-.52 8.86-5.77 8.39-12.43ZM141.09 31.86q2.56 13.02-8.2 12.64c6.78-.85 8.91-6.27 8.2-12.64ZM274.2 37.97q-1.37 8.65-9.75 5.84 6.47 1.08 9.75-5.84ZM203.25 41.65q-1.86.14-4.19 1.41-5.7 3.13-11.76 1.31 6.26.6 11.84-2.52c1.47-.82 2.67-.84 4.11-.2ZM320.27 43.04c-5.32-2.09-7.8 1.4-7.56 6.47-1.85-6.12 2.54-9.75 7.56-6.47ZM330.09 42.49c1.73 4.37-4.61 3.01-6.41 2.04 2.17.19 5.91 1.07 6.41-2.04Z"
     id="path20" />
</svg>
