<?xml version="1.0" encoding="UTF-8" standalone="no"?>
<svg
   version="1.1"
   id="svg2"
   viewBox="0 0 128 128"
   inkscape:version="1.4.3 (0d15f75042, 2025-12-25)"
   sodipodi:docname="handlebarsjs-page.svg"
   xmlns:inkscape="http://www.inkscape.org/namespaces/inkscape"
   xmlns:sodipodi="http://sodipodi.sourceforge.net/DTD/sodipodi-0.dtd"
   xmlns:xlink="http://www.w3.org/1999/xlink"
   xmlns="http://www.w3.org/2000/svg"
   xmlns:svg="http://www.w3.org/2000/svg"
   xmlns:rdf="http://www.w3.org/1999/02/22-rdf-syntax-ns#"
   xmlns:cc="http://creativecommons.org/ns#"
   xmlns:dc="http://purl.org/dc/elements/1.1/">
  <sodipodi:namedview
     pagecolor="#ffffff"
     bordercolor="#666666"
     borderopacity="1"
     objecttolerance="10"
     gridtolerance="10"
     guidetolerance="10"
     inkscape:pageopacity="0"
     inkscape:pageshadow="2"
     inkscape:window-width="2048"
     inkscape:window-height="1083"
     id="namedview33"
     showgrid="false"
     inkscape:zoom="2.6074563"
     inkscape:cx="156.28258"
     inkscape:cy="95.878884"
     inkscape:window-x="0"
     inkscape:window-y="0"
     inkscape:window-maximized="1"
     inkscape:current-layer="svg2"
     inkscape:showpageshadow="2"
     inkscape:pagecheckerboard="0"
     inkscape:deskcolor="#d1d1d1" />
  <metadata
     id="metadata34">
    <rdf:RDF>
      <cc:Work
         rdf:about="">
        <dc:format>image/svg+xml</dc:format>
        <dc:type
           rdf:resource="http://purl.org/dc/dcmitype/StillImage" />
      </cc:Work>
    </rdf:RDF>
  </metadata>
  <defs
     id="0">
    <linearGradient
       id="8">
      <stop
         stop-color="#cbcbcb"
         id="I" />
      <stop
         stop-color="#eee"
         id="J"
         offset="1" />
    </linearGradient>
    <linearGradient
       id="9">
      <stop
         stop-color="#fd0"
         id="K"
         offset="0"
         style="stop-color:#ff4400;stop-opacity:1;" />
      <stop
         stop-color="#e3ad00"
         id="L"
         offset="1" />
    </linearGradient>
    <linearGradient
       id="A">
      <stop
         id="M" />
      <stop
         stop-opacity="0.536"
         id="N"
         offset="1" />
    </linearGradient>
    <linearGradient
       id="B">
      <stop
         id="O" />
      <stop
         stop-opacity="0"
         stop-color="#ddd"
         id="P"
         offset="1" />
    </linearGradient>
    <filter
       height="1.3408285"
       y="-0.17041424"
       width="1.2902653"
       x="-0.14513263"
       id="C">
      <feGaussianBlur
         id="Q"
         stdDeviation="1.81881" />
    </filter>
    <filter
       id="D"
       x="-0.069831288"
       y="-0.052595388"
       width="1.1396626"
       height="1.1051908">
      <feGaussianBlur
         id="R"
         stdDeviation="2.58594" />
    </filter>
    <radialGradient
       id="E"
       gradientUnits="userSpaceOnUse"
       gradientTransform="matrix(1,0,0,0.97467889,0,0.43910718)"
       cx="89.51"
       cy="22.254"
       r="18.279"
       xlink:href="#A" />
    <linearGradient
       y2="25.1"
       x2="86.82"
       y1="14.793"
       x1="98.33"
       gradientTransform="matrix(1.1027844,0,0,0.96494206,-1.6466334,2.3073887)"
       gradientUnits="userSpaceOnUse"
       id="F"
       xlink:href="#B" />
    <radialGradient
       r="44.42"
       cy="100.32"
       cx="81.79"
       gradientTransform="matrix(2.2824714,-1.6069793,2.0257174,2.2425778,-320.53386,26.027991)"
       gradientUnits="userSpaceOnUse"
       id="G"
       xlink:href="#9" />
    <linearGradient
       y2="25.1"
       x2="86.82"
       y1="14.793"
       x1="98.330002"
       gradientTransform="matrix(1.1027844,0,0,0.96494206,53.32121,28.3893)"
       gradientUnits="userSpaceOnUse"
       id="F-3"
       xlink:href="#B" />
    <linearGradient
       y2="25.1"
       x2="86.82"
       y1="14.793"
       x1="98.330002"
       gradientTransform="matrix(1.0903653,0,0,0.95676899,-0.45572616,2.3327971)"
       gradientUnits="userSpaceOnUse"
       id="F-3-5"
       xlink:href="#B" />
    <radialGradient
       xlink:href="#a"
       id="d"
       cx="129.16"
       cy="146.10001"
       r="9.5200005"
       fx="129.16"
       fy="146.10001"
       gradientTransform="matrix(0.1963399,0,-0.01033367,1.6223875,-8.012234,-98.237699)"
       gradientUnits="userSpaceOnUse" />
    <linearGradient
       id="a">
      <stop
         offset="0"
         style="stop-color:#dcdcdc;stop-opacity:1"
         id="stop2" />
      <stop
         offset="1"
         style="stop-color:#b5b5b5;stop-opacity:1"
         id="stop3" />
    </linearGradient>
    <filter
       id="c"
       width="1.2576486"
       height="1.6176311"
       x="-0.10572722"
       y="-0.3091377"
       style="color-interpolation-filters:sRGB">
      <feGaussianBlur
         stdDeviation=".5"
         id="feGaussianBlur1" />
    </filter>
    <filter
       id="b"
       width="1.2576486"
       height="1.6176311"
       x="-0.10572722"
       y="-0.3091377"
       style="color-interpolation-filters:sRGB">
      <feGaussianBlur
         stdDeviation=".5"
         id="feGaussianBlur2" />
    </filter>
  </defs>
  <path
     filter="url(#D)"
     opacity="0.809"
     transform="matrix(0.96714879,0,0,0.97126149,1.5886796,2.6954315)"
     id="1"
     d="m 20.09375,4.1185004 0,117.9999996 88.84375,0 0,-86.15625 -0.59375,-0.625 c 0.21045,0.144391 0.41688,0.302162 0.625,0.4375 L 78.09375,4.1497504 c 0.05654,0.079597 0.09993,0.1703021 0.15625,0.25 l -0.25,-0.28125 -57.90625,0 z" />
  <path
     style="fill:url(#G)"
     id="2"
     d="m 20.394626,4.734986 0,114.834424 97.933244,0 0,-83.844944 -34.102673,-30.98948 -63.830571,0 z" />
  <path
     style="opacity:0.50499998;fill:url(#E);filter:url(#C)"
     transform="matrix(1.016085,0,0,1.112241,2.0563738,-0.67863929)"
     d="m 81.698039,28.309502 0.135161,-8.351 C 81.901124,13.359407 80.956142,8.4107397 77.785779,3.9471419 L 80.362343,3.9159389 107.86271,29.53084 c -4.06802,-2.645393 -9.621189,-0.791242 -16.861906,-1.025606 l -9.302765,-0.195732 z"
     id="4" />
  <path
     style="fill:#eeeeee"
     id="5"
     d="m 91.98684,28.275832 0.139567,-7.747547 C 92.196488,14.406049 89.252766,10.13377 85.979153,5.9927163 L 117.8661,35.334459 c -4.2005,-2.454235 -8.79698,-6.659609 -16.27351,-6.877038 l -9.60575,-0.181589 z" />
  <path
     style="fill:url(#F-3-5)"
     d="m 91.043806,27.953329 0.147381,-7.989976 C 91.265243,13.649542 88.156689,9.2435786 84.699842,4.972946 l 33.671798,30.259883 c -4.43561,-2.531029 -9.2894,-6.867995 -17.18443,-7.092226 L 91.043806,27.953329 Z"
     id="6" />
  <g
     id="g1"
     transform="translate(54.075691,-65.581158)">
    <path
       d="m -18.239131,119.84768 c 0.750913,-0.62 1.298598,-1.4467 1.570721,-2.37673 a 2.8107604,2.8107604 0 0 0 -1.570721,-3.61334 c -4.615711,-2.33541 -7.595253,1.82561 -8.025825,2.79697 -0.434013,0.97482 -1.198707,2.50765 -0.716469,6.01765 0.482243,3.51346 2.176965,6.75134 7.474696,8.02582 a 22.403415,22.403415 0 0 0 15.0423888,-1.75672 l 15.6589692,-6.52745 a 19.199974,19.199974 0 0 1 4.422815,-0.55111 v -5.33908 a 12.248854,12.248854 0 0 0 -11.8596207,-6.2381 c -8.4529447,0.6648 -11.8113894,5.01528 -13.8436823,6.88223 -2.028844,1.86006 -5.876421,6.25532 -8.435728,5.48375 -2.555863,-0.77158 -3.27922,-3.93369 -2.376742,-4.90506 0.902473,-0.97137 1.615497,-0.79914 2.17696,0 0.344455,0.64413 0.516682,1.36749 0.49946,2.09773 z"
       style="fill:#322214;fill-opacity:1;stroke:none;stroke-width:0.86114;stroke-linecap:round;stroke-linejoin:round;stroke-miterlimit:4;stroke-dasharray:none;stroke-opacity:1"
       id="path3" />
    <path
       d="m 49.181229,119.84768 a 4.8327168,4.8327168 0 0 1 -1.570716,-2.37673 2.8107604,2.8107604 0 0 1 1.570716,-3.61334 c 4.615711,-2.33541 7.595253,1.82561 8.025826,2.79697 0.434012,0.97137 1.195262,2.50765 0.713024,6.01765 -0.482238,3.51346 -2.176965,6.75134 -7.474695,8.02582 a 22.403415,22.403415 0 0 1 -15.04239,-1.75672 l -15.658969,-6.52399 a 19.199974,19.199974 0 0 0 -4.422814,-0.55113 v -5.33907 a 12.248854,12.248854 0 0 1 11.859619,-6.23811 c 8.456395,0.6648 11.814839,5.01529 13.847127,6.88224 2.028849,1.86006 5.876421,6.25532 8.435728,5.48374 2.559307,-0.77158 3.27922,-3.93369 2.376747,-4.90505 -0.902477,-0.97137 -1.612057,-0.79914 -2.176964,0 -0.344455,0.64412 -0.516682,1.36748 -0.499461,2.09772 z"
       style="fill:#322214;fill-opacity:1;stroke:none;stroke-width:0.86114;stroke-linecap:round;stroke-linejoin:round;stroke-miterlimit:4;stroke-dasharray:none;stroke-opacity:1"
       id="path4" />
    <path
       d="m 2.68,13.3 c 0,0 3.7,-1.99 5.09,-2.78 1.38,-0.78 1.85,-1.87 3.26,-1.91 1.4,-0.05 4.12,2.1 4.12,2.1 0,0 -2.8,0.08 -3.88,0.35 -1.07,0.27 -1.12,0.66 -2.55,1.1 C 7.3,12.59 2.68,13.3 2.68,13.3 Z"
       style="fill:#5a4d42;fill-opacity:1;stroke:#5a4d42;stroke-width:0.5px;stroke-linecap:butt;stroke-linejoin:miter;stroke-opacity:1;filter:url(#b)"
       transform="matrix(2.6626445,0,0,2.1011812,-27.132981,98.098748)"
       id="path5" />
    <path
       d="m 2.68,13.3 c 0,0 3.7,-1.99 5.09,-2.78 1.38,-0.78 1.85,-1.87 3.26,-1.91 1.4,-0.05 4.12,2.1 4.12,2.1 0,0 -2.8,0.08 -3.88,0.35 -1.07,0.27 -1.12,0.66 -2.55,1.1 C 7.3,12.59 2.68,13.3 2.68,13.3 Z"
       style="fill:#5a4d42;fill-opacity:1;stroke:#5a4d42;stroke-width:0.5px;stroke-linecap:butt;stroke-linejoin:miter;stroke-opacity:1;filter:url(#c)"
       transform="matrix(-2.6626445,0,0,2.1011812,57.634178,98.098748)"
       id="path6" />
    <path
       d="m 18.193974,121.14284 v 35.92676 c 0,1.79462 -1.119482,3.23788 -2.514529,3.23788 -1.388157,0 -2.507639,-1.44326 -2.507639,-3.23788 v -35.90608 c 1.739503,-0.28935 3.771793,-0.28935 5.022168,-0.0241 z"
       style="fill:url(#d);fill-opacity:1;stroke:none;stroke-width:1.55189;stroke-linejoin:round;stroke-miterlimit:4;stroke-dasharray:none;stroke-dashoffset:0;stroke-opacity:1"
       id="path7" />
    <path
       d="m 25.951121,109.37279 a 13.09966,13.09966 0 0 0 -10.481794,5.38384 13.096215,13.096215 0 0 0 -11.0363675,-5.37696 c -0.2480078,0.007 -0.4925712,0.0241 -0.7371346,0.0483 h -0.00337 c -8.7285168,0.68891 -12.4727535,5.37351 -14.3603679,7.10613 -1.060928,0.9748 -2.507642,2.51451 -3.975023,3.69256 a 10.171784,10.171784 0 0 1 -2.111513,1.36749 c -0.644137,0.2859 -1.150485,0.34446 -1.515606,0.23423 a 3.0243232,3.0243232 0 0 1 -1.932402,-1.86006 c -0.310011,-0.80603 -0.120563,-1.57417 -0.06544,-1.63616 0.358233,-0.38235 0.527015,-0.38924 0.533904,-0.38924 0.0069,0 0.103343,0.0344 0.272122,0.25834 a 3.3584454,3.3584454 0 0 1 0.368566,1.52938 0.86113983,0.86113983 0 0 0 1.095371,0.94381 l 0.01722,-0.004 a 0.86113983,0.86113983 0 0 0 0.440906,-0.30313 c 0.792249,-0.70268 1.377823,-1.60171 1.680945,-2.61786 a 3.6856786,3.6856786 0 0 0 -2.039181,-4.68116 c -2.538642,-1.26414 -4.832715,-0.76124 -6.38277,0.22045 -1.563827,0.9886 -2.445633,2.27686 -2.772867,3.01399 -0.41335,0.93692 -1.281375,2.82455 -0.775026,6.48611 0.254896,1.85661 0.840469,3.71324 2.114956,5.27706 1.274487,1.56727 3.217223,2.79698 6.007316,3.46867 h 0.0069 a 23.264555,23.264555 0 0 0 15.6245182,-1.82561 l -0.055109,0.0276 15.5797408,-6.49644 c 0.285898,-0.069 0.575241,-0.10677 0.861139,-0.16189 v 34.04947 c 0,2.12873 1.395047,4.04391 3.372224,4.04391 1.977177,0 3.372224,-1.91518 3.372224,-4.04391 v -33.97025 c 0.144671,0.031 0.292787,0.0483 0.437459,0.0827 l 15.579744,6.49645 -0.05167,-0.0241 a 23.264555,23.264555 0 0 0 15.621074,1.82561 h 0.0069 c 2.790094,-0.67513 4.732823,-1.90484 6.00731,-3.47212 1.274489,-1.56383 1.860061,-3.42044 2.118402,-5.27706 0.502909,-3.66501 -0.361675,-5.54918 -0.778466,-6.4861 -0.330682,-0.73714 -1.205596,-2.0254 -2.769428,-3.014 -1.553499,-0.9817 -3.847571,-1.48116 -6.386214,-0.22044 a 3.6856786,3.6856786 0 0 0 -2.039181,4.6846 5.6835231,5.6835231 0 0 0 1.680945,2.61786 c 0.113668,0.14123 0.268679,0.24801 0.447795,0.29968 l 0.01722,0.007 a 0.86113983,0.86113983 0 0 0 1.088483,-0.95071 3.3584454,3.3584454 0 0 1 0.36857,-1.52594 c 0.172227,-0.2239 0.265229,-0.25833 0.275562,-0.25833 0.0034,0 0.172227,0.007 0.530464,0.38923 0.05511,0.062 0.244564,0.83014 -0.06545,1.63272 a 3.0243232,3.0243232 0 0 1 -1.928953,1.86006 c -0.36857,0.11371 -0.874918,0.0551 -1.515607,-0.23079 -0.644132,-0.28244 -1.377827,-0.77846 -2.114962,-1.36749 -1.46738,-1.18149 -2.914095,-2.71776 -3.975022,-3.69601 -1.887615,-1.72917 -5.628408,-6.41377 -14.356921,-7.10268 a 13.113438,13.113438 0 0 0 -1.302044,-0.0551 z m 0.01034,1.72228 a 11.391158,11.391158 0 0 1 1.150483,0.0482 c 8.184272,0.64413 11.160375,4.66049 13.330447,6.65833 0.964476,0.88525 2.459416,2.48009 4.06458,3.76835 a 11.553052,11.553052 0 0 0 2.49386,1.60172 c 0.861142,0.37891 1.798058,0.57868 2.710868,0.30312 a 4.7638257,4.7638257 0 0 0 3.041546,-2.89342 c 0.465017,-1.21249 0.564907,-2.51109 -0.282456,-3.42046 -0.544241,-0.58558 -1.181479,-0.98169 -1.894504,-0.93692 -0.719913,0.0413 -1.253821,0.51324 -1.615502,1.02648 a 0.86113983,0.86113983 0 0 0 -0.05511,0.0895 c -0.09301,0.17222 -0.134339,0.36168 -0.206676,0.5408 a 3.9199086,3.9199086 0 0 1 -0.282452,-0.71992 1.9358424,1.9358424 0 0 1 1.153926,-2.5352 c 2.059848,-1.04025 3.547895,-0.6338 4.732823,0.12052 a 6.889119,6.889119 0 0 1 2.118407,2.25963 c 0.44779,1.00236 1.105704,2.19418 0.644132,5.54918 -0.227342,1.65339 -0.726802,3.17588 -1.742948,4.42626 -1.019591,1.25037 -2.569641,2.27342 -5.073838,2.87966 a 21.542274,21.542274 0 0 1 -14.515369,-1.7154 l -15.655525,-6.52743 a 10.884808,10.884808 0 0 0 -2.652311,-0.55113 l -0.093,36.06453 c -0.0035,1.39504 -0.843917,2.31819 -1.653389,2.31819 -0.802582,0 -1.646499,-0.92315 -1.646499,-2.32163 l 0.01722,-36.06799 -0.992033,0.12745 c -0.695801,0.093 -1.384713,0.2239 -2.066736,0.38924 a 0.86113983,0.86113983 0 0 0 -0.124004,0.0413 l -15.6589671,6.52743 -0.051665,0.0241 a 21.542274,21.542274 0 0 1 -14.4637039,1.68783 c -2.504198,-0.59936 -4.054248,-1.62583 -5.070394,-2.8762 -1.019591,-1.25038 -1.519051,-2.76943 -1.746392,-4.42627 -0.461572,-3.355 0.196342,-4.54681 0.644132,-5.54918 a 6.889119,6.889119 0 0 1 2.118406,-2.25963 c 1.188374,-0.75436 2.676421,-1.16081 4.732824,-0.12051 l 0.06545,0.0344 a 1.9358424,1.9358424 0 0 1 1.067812,2.56964 c -0.06889,0.2239 -0.15845,0.44091 -0.261785,0.65102 -0.07233,-0.17911 -0.113668,-0.36856 -0.206676,-0.54079 a 0.86113983,0.86113983 0 0 0 -0.05511,-0.0895 c -0.361681,-0.51669 -0.895585,-0.98516 -1.612053,-1.02649 -0.716469,-0.0447 -1.353712,0.35135 -1.897953,0.93692 -0.847364,0.90937 -0.747473,2.20797 -0.282456,3.42045 a 4.7638257,4.7638257 0 0 0 3.041546,2.89343 c 0.91281,0.27556 1.846282,0.0758 2.710868,-0.30313 0.86114,-0.38233 1.694722,-0.95758 2.49386,-1.60172 1.605169,-1.2917 3.100105,-2.88308 4.0645812,-3.76833 2.1700756,-1.99785 5.1496176,-6.01421 13.330444,-6.65835 h 0.013758 a 11.384269,11.384269 0 0 1 10.8848038,5.58019 0.86113983,0.86113983 0 0 0 1.484605,0 11.384269,11.384269 0 0 1 9.748104,-5.63185 z"
       style="color:#000000;font-style:normal;font-variant:normal;font-weight:400;font-stretch:normal;font-size:medium;line-height:normal;font-family:sans-serif;font-variant-ligatures:normal;font-variant-position:normal;font-variant-caps:normal;font-variant-numeric:normal;font-variant-alternates:normal;font-feature-settings:normal;text-indent:0;text-align:start;text-decoration:none;text-decoration-line:none;text-decoration-style:solid;text-decoration-color:#000000;letter-spacing:normal;word-spacing:normal;text-transform:none;writing-mode:lr-tb;direction:ltr;text-orientation:mixed;dominant-baseline:auto;baseline-shift:baseline;text-anchor:start;white-space:normal;shape-padding:0;clip-rule:nonzero;display:inline;overflow:visible;visibility:visible;isolation:auto;mix-blend-mode:normal;color-interpolation:sRGB;color-interpolation-filters:linearRGB;solid-color:#000000;solid-opacity:1;vector-effect:none;fill:#ffffff;fill-opacity:1;fill-rule:nonzero;stroke:none;stroke-width:1.72228;stroke-linecap:round;stroke-linejoin:round;stroke-miterlimit:4;stroke-dasharray:none;stroke-dashoffset:0;stroke-opacity:1;color-rendering:auto;image-rendering:auto;shape-rendering:auto;text-rendering:auto;enable-background:accumulate"
       id="path8-3" />
  </g>
</svg>
